<svg width="256" height="256" viewBox="0 0 256 256" fill="none" xmlns="http://www.w3.org/2000/svg">
<g clip-path="url(#clip0_40_2)">
<path fill-rule="evenodd" clip-rule="evenodd" d="M114.694 23.4332C108.786 21.4638 102.312 22.1744 96.9718 25.3786L53.024 51.7472C46.5983 55.6027 42.6666 62.5468 42.6666 70.0405V213.334H31.9999C26.1089 213.334 21.3333 218.11 21.3333 224.001C21.3333 229.892 26.1089 234.668 31.9999 234.668H224C229.891 234.668 234.667 229.892 234.667 224.001C234.667 218.11 229.891 213.334 224 213.334H213.333V71.6892C213.333 62.5067 207.457 54.3544 198.747 51.4506L114.694 23.4332ZM95.9999 50.8405L63.9999 70.0405V213.334H95.9999V50.8405Z" fill="white"/>
</g>
<defs>
<clipPath id="clip0_40_2">
<rect width="256" height="256" fill="white"/>
</clipPath>
</defs>
</svg>
